Hanif_Medium_5_0_grf.mot
version=1
nRows=47
nColumns=19
inDegrees=yes
endheader
time	right_ground_force_vx	right_ground_force_vy	right_ground_force_vz	right_ground_force_px	right_ground_force_py	right_ground_force_pz	right_ground_torque_x	right_ground_torque_y	right_ground_torque_z	left_ground_force_vx	left_ground_force_vy	left_ground_force_vz	left_ground_force_px	left_ground_force_py	left_ground_force_pz	left_ground_torque_x	left_ground_torque_y	left_ground_torque_z
0.775000	-9.192270	226.560000	35.956100	0.212340	0.000000	-1.425020	-18.309900	-2.074570	2.654980	-7.566590	219.001000	-30.224700	0.202744	0.000000	-0.973551	15.545200	-2.116050	0.978112
0.780000	-8.528020	221.566000	34.784900	0.210924	0.000000	-1.424780	-17.957600	-2.076580	2.262720	-8.121230	208.613000	-27.764500	0.202090	0.000000	-0.973139	14.736100	-2.048970	0.792167
0.785000	-7.569020	216.781000	33.375200	0.208928	0.000000	-1.425660	-17.383300	-1.826570	1.793800	-8.428770	198.573000	-25.829900	0.201577	0.000000	-0.971891	13.791800	-2.015950	0.656130
0.790000	-6.737380	212.226000	32.747700	0.208593	0.000000	-1.425750	-16.996500	-1.889880	1.658870	-7.905770	186.650000	-22.886300	0.199686	0.000000	-0.973835	13.332000	-2.059500	0.261760
0.795000	-5.749410	206.443000	32.176700	0.205742	0.000000	-1.426840	-16.313000	-1.692590	1.021260	-7.426810	176.569000	-20.982500	0.198427	0.000000	-0.972820	12.435900	-2.076280	0.026689
0.800000	-4.937040	203.402000	31.249700	0.205235	0.000000	-1.426870	-16.068700	-1.650780	0.896335	-5.415360	164.053000	-19.149400	0.196660	0.000000	-0.974287	11.777100	-2.171070	-0.256874
0.805000	-4.424900	199.172000	30.425800	0.203576	0.000000	-1.428120	-15.484700	-1.673610	0.525864	-4.223550	154.928000	-17.474200	0.192917	0.000000	-0.975231	11.258600	-2.309710	-0.816331
0.810000	-4.495900	193.320000	29.808100	0.201520	0.000000	-1.428080	-15.034100	-1.637970	0.102254	-2.460960	144.745000	-16.422500	0.189859	0.000000	-0.975649	10.556300	-2.383300	-1.196040
0.815000	-4.623790	188.781000	29.154300	0.202213	0.000000	-1.429710	-14.367200	-1.874820	0.192618	0.139407	137.790000	-15.741200	0.187406	0.000000	-0.975211	9.947560	-2.619910	-1.459800
0.820000	-4.502660	181.119000	28.295600	0.201167	0.000000	-1.425540	-14.534900	-1.947530	-0.031119	3.046200	132.470000	-15.088200	0.183312	0.000000	-0.972704	9.180280	-2.784650	-1.946410
0.825000	-4.834940	175.840000	28.242100	0.201907	0.000000	-1.426130	-14.001600	-1.967720	0.090013	5.653050	127.416000	-14.804900	0.180648	0.000000	-0.974999	9.069870	-3.034900	-2.193720
0.830000	-4.774560	172.389000	27.369400	0.203826	0.000000	-1.425130	-13.897100	-2.102240	0.403674	8.831010	125.356000	-14.956900	0.179444	0.000000	-0.976136	9.008900	-3.212200	-2.307290
0.835000	-4.801940	168.383000	26.875300	0.203614	0.000000	-1.424030	-13.753300	-2.207200	0.334532	10.556300	127.719000	-15.715200	0.180728	0.000000	-0.977017	9.275000	-3.241630	-2.195890
0.840000	-3.779920	166.872000	26.819200	0.205531	0.000000	-1.424040	-13.633400	-2.353390	0.618311	11.654600	129.845000	-16.270200	0.182703	0.000000	-0.979691	9.776740	-3.194580	-1.992840
0.845000	-2.511410	164.511000	26.424900	0.205587	0.000000	-1.423720	-13.507400	-2.202490	0.622213	11.853700	137.083000	-17.082400	0.185723	0.000000	-0.981047	10.530000	-3.122420	-1.713670
0.850000	-1.252610	162.216000	26.972500	0.207158	0.000000	-1.421880	-13.632200	-2.099080	0.861669	11.190400	144.500000	-17.799700	0.192264	0.000000	-0.982408	11.324400	-2.963770	-0.879208
0.855000	0.359568	161.587000	26.621800	0.208590	0.000000	-1.422170	-13.550500	-2.141970	1.067790	10.016900	155.516000	-19.687900	0.196761	0.000000	-0.982757	12.287700	-2.659680	-0.276239
0.860000	2.188840	160.113000	27.181200	0.208491	0.000000	-1.419950	-13.804300	-1.968240	1.032510	8.836430	166.389000	-21.731200	0.203840	0.000000	-0.983697	13.332700	-2.406050	0.870928
0.865000	3.801930	159.391000	27.898800	0.210742	0.000000	-1.421010	-13.591000	-1.830640	1.387660	6.491950	179.102000	-23.568500	0.208753	0.000000	-0.985363	14.686000	-2.134680	1.805440
0.870000	4.211120	161.842000	28.846800	0.211493	0.000000	-1.420130	-13.947400	-1.872880	1.520840	5.685550	190.814000	-26.746700	0.214189	0.000000	-0.987818	16.136400	-1.717780	2.933910
0.875000	3.513450	162.300000	30.413200	0.214384	0.000000	-1.417880	-14.338800	-1.834620	2.014720	4.776810	203.696000	-29.895100	0.218403	0.000000	-0.988643	17.406700	-1.501090	3.989590
0.880000	2.994210	164.632000	31.296000	0.216305	0.000000	-1.417250	-14.642500	-1.982600	2.353910	4.958130	214.088000	-32.573400	0.222012	0.000000	-0.989053	18.386100	-1.302410	4.954810
0.885000	1.825730	168.820000	32.422600	0.219119	0.000000	-1.417240	-15.002100	-2.095680	2.913180	5.167890	222.628000	-35.354000	0.223640	0.000000	-0.988561	19.011700	-1.181700	5.513100
0.890000	1.031140	171.911000	34.425400	0.221935	0.000000	-1.414810	-15.685500	-2.108610	3.480920	5.161670	227.905000	-36.915400	0.225502	0.000000	-0.989652	19.711600	-1.137280	6.076320
0.895000	0.089155	179.691000	36.236700	0.224426	0.000000	-1.416180	-16.140300	-2.264460	4.109360	5.501170	232.727000	-37.920300	0.227158	0.000000	-0.989607	20.113100	-1.253020	6.614700
0.900000	-0.949730	185.715000	37.183700	0.227601	0.000000	-1.415040	-16.886800	-2.218570	4.904570	5.471200	233.144000	-38.263400	0.229567	0.000000	-0.990165	20.275100	-1.348790	7.222220
0.905000	-2.081080	191.932000	38.183300	0.230400	0.000000	-1.412500	-17.935600	-2.261090	5.654560	4.778270	234.928000	-37.958000	0.229360	0.000000	-0.990476	20.505400	-1.528220	7.257000
0.910000	-2.979490	196.114000	37.119500	0.231124	0.000000	-1.413030	-18.219200	-2.297660	5.940040	4.940840	237.406000	-37.904400	0.230864	0.000000	-0.990993	20.841300	-1.607770	7.701250
0.915000	-4.197540	198.958000	36.066400	0.233470	0.000000	-1.411370	-18.813800	-2.295800	6.533830	5.772510	243.979000	-39.330000	0.232849	0.000000	-0.990659	21.325600	-1.804850	8.432130
0.920000	-4.432620	202.773000	35.468000	0.235410	0.000000	-1.411090	-19.233000	-2.265990	7.077100	6.618500	251.249000	-41.103400	0.233039	0.000000	-0.991785	22.238100	-1.857950	8.731000
0.925000	-5.012630	203.334000	34.978500	0.236746	0.000000	-1.410170	-19.469300	-2.463350	7.351640	8.063170	257.459000	-42.860800	0.233547	0.000000	-0.991584	22.719600	-2.059910	9.100440
0.930000	-6.122900	200.257000	33.891000	0.237714	0.000000	-1.409430	-19.324300	-2.366420	7.468470	8.952270	258.626000	-44.695600	0.234250	0.000000	-0.989871	22.364600	-2.204740	9.369210
0.935000	-6.191090	200.059000	33.758400	0.238718	0.000000	-1.407910	-19.612600	-2.272600	7.685480	9.503710	257.276000	-46.392100	0.234382	0.000000	-0.990204	22.323000	-2.281650	9.395280
0.940000	-6.549300	202.346000	33.762100	0.238552	0.000000	-1.408220	-19.772000	-2.365960	7.730020	9.642800	255.499000	-47.582000	0.234353	0.000000	-0.989495	21.982000	-2.310610	9.356580
0.945000	-6.280960	202.667000	33.999200	0.240152	0.000000	-1.408240	-19.802300	-2.284910	8.086190	9.103890	253.760000	-47.080800	0.233784	0.000000	-0.988035	21.462900	-2.408280	9.171400
0.950000	-7.207380	201.649000	34.277700	0.240825	0.000000	-1.410010	-19.349200	-2.305420	8.195950	8.452230	250.397000	-47.089500	0.234961	0.000000	-0.989322	21.503500	-2.378070	9.373840
0.955000	-7.213350	200.750000	34.495100	0.240643	0.000000	-1.409300	-19.404800	-2.320200	8.121250	7.515980	251.747000	-47.300600	0.234504	0.000000	-0.989016	21.550000	-2.507910	9.342730
0.960000	-7.354530	206.493000	35.326900	0.240467	0.000000	-1.408310	-20.159700	-2.478810	8.299490	7.149860	256.928000	-46.935400	0.235458	0.000000	-0.988849	21.956300	-2.568140	9.771270
0.965000	-7.360240	207.709000	36.054100	0.241666	0.000000	-1.407570	-20.436700	-2.474140	8.611550	6.414100	262.933000	-46.887800	0.236866	0.000000	-0.988942	22.505000	-2.591430	10.365500
0.970000	-7.450930	210.770000	36.170600	0.242348	0.000000	-1.408970	-20.442000	-2.502200	8.883210	5.786740	269.985000	-47.494500	0.237278	0.000000	-0.990756	23.610400	-2.588350	10.742100
0.975000	-8.071450	214.183000	36.227600	0.241730	0.000000	-1.408750	-20.817800	-2.589120	8.888290	5.086930	274.348000	-47.273600	0.238178	0.000000	-0.990235	23.857400	-2.696730	11.173200
0.980000	-8.041720	214.080000	35.487400	0.243351	0.000000	-1.408060	-20.954300	-2.638580	9.228710	5.418760	277.324000	-46.950300	0.238559	0.000000	-0.989508	23.912500	-2.664510	11.371500
0.985000	-8.502970	216.226000	35.162300	0.243902	0.000000	-1.406940	-21.404500	-2.746140	9.434260	4.438700	280.141000	-46.909400	0.238619	0.000000	-0.989456	24.153400	-2.755790	11.519200
0.990000	-9.165970	218.858000	34.374600	0.244506	0.000000	-1.406900	-21.675400	-2.784450	9.686250	3.602140	279.725000	-46.697700	0.239115	0.000000	-0.989471	24.134000	-2.675490	11.641000
0.995000	-9.753770	221.651000	34.120800	0.244644	0.000000	-1.404870	-22.398400	-2.879050	9.838490	2.691970	277.923000	-46.096000	0.239477	0.000000	-0.990423	24.254600	-2.772700	11.694300
1.000000	-9.924310	223.248000	33.636800	0.246214	0.000000	-1.406030	-22.303600	-2.877100	10.267400	2.439910	276.808000	-45.350900	0.239923	0.000000	-0.989995	24.043000	-2.691550	11.753800
1.005000	-10.588400	227.657000	33.562900	0.247271	0.000000	-1.405380	-22.895900	-2.895020	10.725800	2.170420	279.587000	-44.876000	0.240248	0.000000	-0.989933	24.271500	-2.764550	11.956000
